# 3ds Max Wavefront OBJ Exporter v0.97b - (c)2007 guruware
# File Created: 03.06.2018 12:37:49

mtllib smallship2.mtl

#
# object Cube_001
#

v  0.0147 1.8288 4.0812
v  0.0172 1.7198 4.0746
v  0.1650 1.7779 3.1738
v  0.1624 1.8869 3.1804
v  -4.1123 1.7254 4.1659
v  -4.1097 1.6165 4.1593
v  -4.2959 1.7752 3.2712
v  -4.2933 1.6663 3.2646
v  -4.2747 2.0860 -1.8366
v  -4.2721 1.9755 -1.8433
v  -4.3714 1.9174 -0.9232
v  -4.3740 2.0279 -0.9166
v  -0.1475 2.1894 -1.9216
v  -0.1448 2.0789 -1.9282
v  -0.0165 2.1370 -1.0051
v  -0.0138 2.0265 -1.0118
# 16 vertices

vn 0.9866 0.0136 0.1627
vn 0.0220 -0.0599 0.9980
vn -0.9794 -0.0354 0.1990
vn -0.0218 0.0599 -0.9980
vn 0.0238 -0.9979 -0.0605
vn -0.0238 0.9979 0.0605
vn -0.9940 -0.0171 -0.1084
vn -0.0220 0.0599 -0.9980
vn 0.9897 0.0320 -0.1396
vn 0.0218 -0.0600 0.9980
# 10 vertex normals

vt 0.7455 0.3447 0.0000
vt 0.7455 0.2787 0.0000
vt 0.1982 0.2787 0.0000
vt 0.1982 0.3447 0.0000
vt 0.8535 0.6797 0.0000
vt 0.8535 0.6618 0.0000
vt 0.1429 0.6618 0.0000
vt 0.1429 0.6797 0.0000
vt 0.2169 0.8847 0.0000
vt 0.6880 0.8847 0.0000
vt 0.6880 0.7968 0.0000
vt 0.2169 0.7968 0.0000
vt 0.8316 0.5172 0.0000
vt 0.1648 0.5172 0.0000
vt 0.1648 0.3986 0.0000
vt 0.8316 0.3986 0.0000
# 16 texture coords

o Cube_001
g Cube_001
usemtl Material_002
s off
f 1/1/1 2/2/1 3/3/1 
f 3/3/1 4/4/1 1/1/1 
f 5/5/2 6/6/2 2/7/2 
f 2/7/2 1/8/2 5/5/2 
f 7/4/3 8/3/3 6/2/3 
f 6/2/3 5/1/3 7/4/3 
f 4/8/4 3/7/4 8/6/4 
f 8/6/4 7/5/4 4/8/4 
f 2/9/5 6/10/5 8/11/5 
f 8/11/5 3/12/5 2/9/5 
f 5/13/6 1/14/6 4/15/6 
f 4/15/6 7/16/6 5/13/6 
f 9/1/7 10/2/7 11/3/7 
f 11/3/7 12/4/7 9/1/7 
f 13/5/8 14/6/8 10/7/8 
f 10/7/8 9/8/8 13/5/8 
f 15/4/9 16/3/9 14/2/9 
f 14/2/9 13/1/9 15/4/9 
f 12/8/10 11/7/10 16/6/10 
f 16/6/10 15/5/10 12/8/10 
f 10/9/5 14/10/5 16/11/5 
f 16/11/5 11/12/5 10/9/5 
f 13/13/6 9/14/6 12/15/6 
f 12/15/6 15/16/6 13/13/6 
# 24 faces

#
# object Cube
#

v  -2.2252 0.6903 -4.6098
v  -2.1497 -0.1671 -1.9627
v  -3.9842 0.4339 -1.8864
v  -3.3935 0.6225 -3.9443
v  -2.1259 2.0181 9.4694
v  -2.0777 0.0403 8.3296
v  -1.9446 0.0437 8.3268
v  -1.9709 2.0238 9.4663
v  -3.6582 2.6481 -4.8368
v  -4.3473 2.4577 -2.4368
v  -3.0518 -0.0782 6.2875
v  -1.9714 -0.5940 6.2328
v  -3.8567 0.0015 4.2537
v  -2.0132 -0.6058 4.1768
v  -4.1786 0.1086 2.2109
v  -2.0576 -0.5036 2.1276
v  -4.2242 0.2568 0.1645
v  -2.1033 -0.3505 0.0815
v  -3.2637 1.9893 7.0963
v  -4.1989 1.9646 4.7191
v  -4.5741 2.0885 2.3385
v  -4.6271 2.2592 -0.0463
v  -2.2876 2.7028 -5.1934
v  -1.0288 0.6817 -3.9926
v  -0.3458 0.5250 -1.9608
v  -1.8115 0.0470 8.3241
v  -1.8158 2.0259 9.4630
v  -0.9025 2.7171 -4.8931
v  -0.1073 2.5639 -2.5235
v  -0.9169 -0.0248 6.2439
v  -0.2008 0.0931 4.1790
v  0.0318 0.2141 2.1249
v  -0.0138 0.3623 0.0785
v  -0.7758 2.0516 7.0455
v  0.0615 2.0713 4.6320
v  0.3325 2.2114 2.2382
v  0.2795 2.3821 -0.1466
v  -2.0906 2.0322 9.1920
v  -1.9773 2.0371 9.1714
v  -1.9496 0.0801 8.1281
v  -2.0508 0.0741 8.1240
v  -3.3501 0.6379 -3.7428
v  -3.6004 2.6409 -4.5730
v  -4.2400 2.4516 -2.2982
v  -3.9081 0.4593 -1.7862
v  -2.9974 -0.0576 6.1400
v  -3.1852 1.9957 6.8830
v  -4.0999 1.9729 4.5667
v  -3.7854 0.0376 4.1442
v  -4.0961 0.1437 2.1766
v  -4.4580 2.0948 2.2888
v  -4.1402 0.2873 0.1995
v  -4.5090 2.2594 0.0008
v  -2.2215 0.7071 -4.4078
v  -2.2813 2.6917 -4.8983
v  -1.8484 0.0792 8.1199
v  -1.8631 2.0379 9.1873
v  -0.2084 2.5526 -2.3806
v  -0.9491 2.7074 -4.6272
v  -1.0647 0.6951 -3.7896
v  -0.4190 0.5467 -1.8575
v  -0.8632 2.0539 6.8356
v  -0.9782 -0.0070 6.0987
v  -0.0439 2.0744 4.4837
v  -0.2781 0.1254 4.0725
v  0.2143 2.2118 2.1933
v  -0.0538 0.2449 2.0940
v  0.1636 2.3765 -0.0947
v  -0.0977 0.3886 0.1169
v  -2.1633 0.4083 -1.9279
v  -2.2075 0.6686 -3.7665
v  -1.9851 -0.0182 6.2677
v  -2.0269 -0.0302 4.2116
v  -2.0713 0.0719 2.1625
v  -2.1170 0.2249 0.1164
# 75 vertices

vn -0.3091 -0.9073 -0.2851
vn 0.0070 -0.9960 -0.0893
vn 0.0302 -0.4985 0.8663
vn 0.0353 -0.4981 0.8664
vn -0.9249 -0.2478 -0.2882
vn -0.9268 -0.2439 -0.2855
vn -0.4034 -0.8739 0.2713
vn 0.0260 -0.9986 0.0456
vn -0.3124 -0.9499 0.0118
vn -0.4216 -0.8972 0.1317
vn -0.2776 -0.9607 -0.0066
vn -0.3141 -0.9485 -0.0405
vn -0.2770 -0.9588 -0.0633
vn -0.2791 -0.9580 -0.0654
vn -0.3136 -0.9422 -0.1180
vn -0.2773 -0.9575 -0.0796
vn -0.8710 -0.2538 0.4207
vn -0.8636 -0.2674 0.4275
vn -0.9042 -0.2328 0.3581
vn -0.9057 -0.2406 0.3490
vn -0.9689 -0.2027 0.1421
vn -0.9689 -0.2026 0.1422
vn -0.9805 -0.1963 0.0077
vn -0.9805 -0.1965 0.0076
vn -0.9690 -0.2094 -0.1308
vn -0.9691 -0.2088 -0.1314
vn -0.2315 -0.2776 -0.9324
vn -0.4333 -0.4102 -0.8025
vn 0.1524 -0.9389 -0.3085
vn 0.3519 -0.9167 -0.1890
vn 0.0302 -0.4982 0.8665
vn 0.0251 -0.4986 0.8665
vn 0.9248 -0.2004 -0.3233
vn 0.9244 -0.1981 -0.3260
vn 0.0259 -0.9986 0.0456
vn 0.4574 -0.8523 0.2537
vn 0.3588 -0.9307 0.0713
vn 0.4750 -0.8800 -0.0046
vn 0.3248 -0.9456 -0.0189
vn 0.3593 -0.9316 -0.0542
vn 0.3218 -0.9438 -0.0755
vn 0.3238 -0.9429 -0.0778
vn 0.3552 -0.9255 -0.1317
vn 0.3214 -0.9425 -0.0919
vn 0.8926 -0.2234 0.3916
vn 0.8990 -0.2095 0.3845
vn 0.9269 -0.1962 0.3200
vn 0.9319 -0.1840 0.3127
vn 0.9828 -0.1538 0.1023
vn 0.9828 -0.1537 0.1022
vn 0.9886 -0.1472 -0.0327
vn 0.9886 -0.1470 -0.0325
vn 0.9720 -0.1609 -0.1711
vn 0.9723 -0.1602 -0.1705
vn 0.4202 -0.3888 -0.8199
vn 0.2069 -0.2666 -0.9414
vn -0.1785 0.4609 -0.8693
vn 0.0070 0.4789 -0.8778
vn 0.9310 0.2329 0.2811
vn 0.9305 0.2286 0.2862
vn 0.8667 0.2523 -0.4303
vn 0.8775 0.2321 -0.4197
vn 0.9079 0.2135 -0.3606
vn 0.9101 0.2240 -0.3487
vn 0.9717 0.1884 -0.1427
vn 0.9715 0.1891 -0.1432
vn 0.9831 0.1829 -0.0087
vn 0.9831 0.1830 -0.0088
vn 0.9722 0.1949 0.1301
vn 0.9720 0.1955 0.1305
vn 0.4846 0.2236 0.8457
vn 0.2054 0.3965 0.8948
vn -0.0672 0.4686 -0.8808
vn 0.1189 0.4758 -0.8715
vn -0.9292 0.1863 0.3192
vn -0.9283 0.1820 0.3242
vn -0.9044 0.1875 -0.3832
vn -0.8951 0.2082 -0.3943
vn -0.9295 0.1797 -0.3222
vn -0.9356 0.1640 -0.3126
vn -0.9849 0.1394 -0.1027
vn -0.9847 0.1401 -0.1032
vn -0.9905 0.1336 0.0317
vn -0.9906 0.1334 0.0316
vn -0.9744 0.1467 0.1703
vn -0.9746 0.1462 0.1699
vn -0.4355 0.3672 0.8219
vn -0.1967 0.2297 0.9532
vn -0.0353 0.9983 0.0461
vn -0.0356 0.9983 0.0460
vn -0.0330 0.9970 0.0696
vn -0.1112 0.9925 0.0513
vn -0.0497 0.9987 0.0117
vn -0.1099 0.9933 0.0364
vn -0.0530 0.9985 0.0105
vn -0.0612 0.9980 0.0143
vn -0.0027 0.9986 0.0524
vn -0.0291 0.9979 0.0580
vn -0.0304 0.9969 0.0720
vn -0.0229 0.9971 0.0723
vn -0.0333 0.9963 0.0794
vn -0.0434 0.9960 0.0776
vn -0.0299 0.9988 0.0381
vn -0.0301 0.9990 0.0337
vn -0.0128 0.9989 0.0457
vn -0.0126 0.9989 0.0456
vn 0.0545 0.9974 0.0462
vn -0.0101 0.9974 0.0720
vn 0.0047 1.0000 0.0088
vn 0.0545 0.9979 0.0341
vn 0.0123 0.9998 0.0124
vn 0.0026 1.0000 0.0097
vn -0.0180 0.9982 0.0564
vn -0.0469 0.9974 0.0545
vn -0.0165 0.9973 0.0721
vn -0.0239 0.9971 0.0719
vn -0.0027 0.9970 0.0772
vn -0.0136 0.9968 0.0785
vn -0.0194 0.9991 0.0379
vn -0.0176 0.9993 0.0337
vn 0.0373 0.9941 0.1014
vn -0.0237 0.9898 0.1407
vn -0.0575 0.9976 -0.0388
vn -0.0323 0.9981 -0.0521
vn 0.0372 0.9988 0.0329
vn -0.0383 0.9993 -0.0051
vn 0.0357 0.9982 0.0482
vn 0.0366 0.9981 0.0489
vn 0.0337 0.9969 0.0717
vn 0.0359 0.9966 0.0737
vn 0.0344 0.9953 0.0902
vn 0.0363 0.9954 0.0885
vn -0.0214 0.9963 0.0837
vn -0.0840 0.9863 0.1416
vn 0.0059 0.9992 -0.0401
vn -0.0198 0.9984 -0.0524
vn -0.0889 0.9960 -0.0040
vn -0.0001 0.9979 0.0652
vn -0.0836 0.9952 0.0514
vn -0.0845 0.9951 0.0505
vn -0.0826 0.9937 0.0761
vn -0.0806 0.9940 0.0740
vn -0.0825 0.9923 0.0929
vn -0.0805 0.9926 0.0909
# 144 vertex normals

vt 0.2050 0.1824 0.0000
vt 0.2937 0.1824 0.0000
vt 0.2937 0.0875 0.0000
vt 0.2050 0.1207 0.0000
vt 0.9420 0.4387 0.0000
vt 0.9436 0.3169 0.0000
vt 0.9536 0.3169 0.0000
vt 0.9536 0.4387 0.0000
vt -0.4241 0.5451 0.0000
vt -0.3143 0.3340 0.0000
vt -0.0928 0.3340 0.0000
vt -0.1660 0.5451 0.0000
vt 0.6485 0.1267 0.0000
vt 0.6485 0.1824 0.0000
vt 0.7372 0.1824 0.0000
vt 0.7372 0.1754 0.0000
vt 0.5598 0.0870 0.0000
vt 0.5598 0.1824 0.0000
vt 0.4711 0.0725 0.0000
vt 0.4711 0.1824 0.0000
vt 0.3824 0.0725 0.0000
vt 0.3824 0.1824 0.0000
vt 1.1243 0.5451 0.0000
vt 0.8662 0.5451 0.0000
vt 0.7930 0.3340 0.0000
vt 1.0144 0.3340 0.0000
vt 0.6081 0.5451 0.0000
vt 0.5715 0.3340 0.0000
vt 0.3501 0.5451 0.0000
vt 0.3501 0.3340 0.0000
vt 0.0920 0.5451 0.0000
vt 0.1286 0.3340 0.0000
vt 1.1099 0.6410 0.0000
vt 0.8571 0.6410 0.0000
vt 0.8571 0.3436 0.0000
vt 1.0740 0.3436 0.0000
vt 0.2937 0.7968 0.0000
vt 0.2050 0.7968 0.0000
vt 0.2050 0.7351 0.0000
vt 0.2937 0.7019 0.0000
vt 0.9636 0.3169 0.0000
vt 0.9653 0.4387 0.0000
vt -0.2154 0.4143 0.0000
vt -0.3232 0.6215 0.0000
vt -0.0699 0.6215 0.0000
vt 0.0020 0.4143 0.0000
vt 0.6485 0.7411 0.0000
vt 0.7372 0.7898 0.0000
vt 0.7372 0.7968 0.0000
vt 0.6485 0.7968 0.0000
vt 0.5598 0.7968 0.0000
vt 0.5598 0.7014 0.0000
vt 0.4711 0.7968 0.0000
vt 0.4711 0.6870 0.0000
vt 0.3824 0.7968 0.0000
vt 0.3824 0.6870 0.0000
vt 1.1965 0.6215 0.0000
vt 1.0887 0.4143 0.0000
vt 0.8714 0.4143 0.0000
vt 0.9433 0.6215 0.0000
vt 0.6540 0.4143 0.0000
vt 0.6900 0.6215 0.0000
vt 0.4367 0.4143 0.0000
vt 0.4367 0.6215 0.0000
vt 0.2193 0.4143 0.0000
vt 0.1834 0.6215 0.0000
vt 0.6042 0.6410 0.0000
vt 0.6401 0.3436 0.0000
vt 0.9311 0.4416 0.0000
vt 0.8571 0.4416 0.0000
vt 0.8571 0.5431 0.0000
vt 0.9433 0.5431 0.0000
vt 0.0067 0.8811 0.0000
vt -0.2466 0.8811 0.0000
vt -0.1388 0.6739 0.0000
vt 0.0785 0.6739 0.0000
vt 1.2731 0.8811 0.0000
vt 1.0198 0.8811 0.0000
vt 0.9479 0.6739 0.0000
vt 1.1653 0.6739 0.0000
vt 0.7665 0.8811 0.0000
vt 0.7306 0.6739 0.0000
vt 0.5132 0.8811 0.0000
vt 0.5132 0.6739 0.0000
vt 0.2599 0.8811 0.0000
vt 0.2959 0.6739 0.0000
vt 0.7831 0.4416 0.0000
vt 0.7708 0.5431 0.0000
vt 1.0173 0.1490 0.0000
vt 1.0201 0.1334 0.0000
vt 1.0523 0.1292 0.0000
vt 1.0513 0.1507 0.0000
vt -0.5797 -0.1187 0.0000
vt -0.3029 -0.2071 0.0000
vt -0.2877 -0.1921 0.0000
vt -0.5504 -0.1103 0.0000
vt 0.7567 -0.0237 0.0000
vt 0.7815 -0.0340 0.0000
vt 0.5126 -0.1674 0.0000
vt 0.4948 -0.1543 0.0000
vt 0.2431 -0.2254 0.0000
vt 0.2369 -0.2097 0.0000
vt -0.0239 -0.2228 0.0000
vt -0.0287 -0.2391 0.0000
vt -0.5561 0.0718 0.0000
vt -0.5893 0.0702 0.0000
vt 1.0501 0.1722 0.0000
vt 1.0185 0.1649 0.0000
vt -0.3319 0.3747 0.0000
vt -0.5986 0.2593 0.0000
vt -0.5686 0.2536 0.0000
vt -0.3153 0.3612 0.0000
vt 0.7644 0.3092 0.0000
vt 0.7407 0.2965 0.0000
vt 0.4834 0.4167 0.0000
vt 0.4670 0.4018 0.0000
vt 0.2095 0.4474 0.0000
vt 0.2049 0.4311 0.0000
vt -0.0623 0.4339 0.0000
vt -0.0559 0.4182 0.0000
vt 1.6186 0.9702 0.0000
vt 1.2378 1.2400 0.0000
vt 1.2574 0.4580 0.0000
vt 1.6187 0.4580 0.0000
vt -0.3157 0.9106 0.0000
vt -0.7046 0.5034 0.0000
vt -0.7058 0.4580 0.0000
vt -0.3445 0.4580 0.0000
vt 0.0560 0.4580 0.0000
vt 0.0774 1.2441 0.0000
vt 0.4564 0.4580 0.0000
vt 0.4632 1.3640 0.0000
vt 0.8569 0.4580 0.0000
vt 0.8501 1.3640 0.0000
vt 1.2378 -0.3240 0.0000
vt 1.6186 -0.0542 0.0000
vt -0.7046 0.4126 0.0000
vt -0.3157 0.0054 0.0000
vt 0.0774 -0.3281 0.0000
vt 0.4632 -0.4480 0.0000
vt 0.8501 -0.4480 0.0000
# 141 texture coords

o Cube
g Cube
usemtl Material
s off
f 17/17/11 18/18/11 19/19/11 
f 19/19/12 20/20/12 17/17/12 
f 21/21/13 22/22/13 23/23/13 
f 23/23/14 24/24/14 21/21/14 
f 25/25/15 20/26/15 19/27/15 
f 19/27/16 26/28/16 25/25/16 
f 27/29/17 28/30/17 23/31/17 
f 23/31/18 22/32/18 27/29/18 
f 29/33/19 30/34/19 28/30/19 
f 28/30/20 27/29/20 29/33/20 
f 29/33/21 31/35/21 32/36/21 
f 32/36/22 30/34/22 29/33/22 
f 31/35/23 33/37/23 34/38/23 
f 34/38/24 32/36/24 31/35/24 
f 33/37/25 19/19/25 18/18/25 
f 18/18/26 34/38/26 33/37/26 
f 21/39/27 35/40/27 27/41/27 
f 27/41/28 22/42/28 21/39/28 
f 27/41/29 35/40/29 36/43/29 
f 36/43/30 29/44/30 27/41/30 
f 37/45/31 31/46/31 29/44/31 
f 29/44/32 36/43/32 37/45/32 
f 31/46/33 37/45/33 38/47/33 
f 38/47/34 33/48/34 31/46/34 
f 38/47/35 26/28/35 19/27/35 
f 19/27/36 33/48/36 38/47/36 
f 25/49/37 39/50/37 17/51/37 
f 17/51/38 20/52/38 25/49/38 
f 18/53/39 17/54/39 40/55/39 
f 40/55/40 41/56/40 18/53/40 
f 24/24/41 23/23/41 42/57/41 
f 42/57/42 43/58/42 24/24/42 
f 40/59/43 44/60/43 45/61/43 
f 45/61/44 41/62/44 40/59/44 
f 46/63/45 42/64/45 23/65/45 
f 23/65/46 28/66/46 46/63/46 
f 30/67/47 47/68/47 46/63/47 
f 46/63/48 28/66/48 30/67/48 
f 32/69/49 48/70/49 47/68/49 
f 47/68/50 30/67/50 32/69/50 
f 34/71/51 49/72/51 48/70/51 
f 48/70/52 32/69/52 34/71/52 
f 18/53/53 41/56/53 49/72/53 
f 49/72/54 34/71/54 18/53/54 
f 43/73/55 42/74/55 46/75/55 
f 46/75/56 50/76/56 43/73/56 
f 47/77/57 51/78/57 50/76/57 
f 50/76/58 46/75/58 47/77/58 
f 48/79/59 52/80/59 51/78/59 
f 51/78/60 47/77/60 48/79/60 
f 48/79/61 49/81/61 53/82/61 
f 53/82/62 52/80/62 48/79/62 
f 49/81/63 41/62/63 45/61/63 
f 45/61/64 53/82/64 49/81/64 
f 44/83/65 40/84/65 17/51/65 
f 17/51/66 39/50/66 44/83/66 
f 54/21/67 55/24/67 56/23/67 
f 56/23/68 57/22/68 54/21/68 
f 58/26/69 59/25/69 60/28/69 
f 60/28/70 61/27/70 58/26/70 
f 54/39/71 57/42/71 62/41/71 
f 62/41/72 63/40/72 54/39/72 
f 64/43/73 63/40/73 62/41/73 
f 62/41/74 65/44/74 64/43/74 
f 66/46/75 67/45/75 64/43/75 
f 64/43/76 65/44/76 66/46/76 
f 67/45/77 66/46/77 68/48/77 
f 68/48/78 69/47/78 67/45/78 
f 60/28/79 69/47/79 68/48/79 
f 68/48/80 61/27/80 60/28/80 
f 58/85/81 70/86/81 71/87/81 
f 71/87/82 59/88/82 58/85/82 
f 72/57/83 56/23/83 55/24/83 
f 55/24/84 73/58/84 72/57/84 
f 74/89/85 75/90/85 76/91/85 
f 76/91/86 77/92/86 74/89/86 
f 73/93/87 78/94/87 79/95/87 
f 79/95/88 72/96/88 73/93/88 
f 78/94/89 80/97/89 81/98/89 
f 81/98/90 79/95/90 78/94/90 
f 80/97/91 82/99/91 83/100/91 
f 83/100/92 81/98/92 80/97/92 
f 84/101/93 85/102/93 83/100/93 
f 83/100/94 82/99/94 84/101/94 
f 74/89/95 77/92/95 85/102/95 
f 85/102/96 84/101/96 74/89/96 
f 70/86/97 76/103/97 75/104/97 
f 75/104/98 71/87/98 70/86/98 
f 55/105/99 54/106/99 21/107/99 
f 21/107/100 24/108/100 55/105/100 
f 25/109/101 26/110/101 60/111/101 
f 60/111/102 59/112/102 25/109/102 
f 63/113/103 35/114/103 21/107/103 
f 21/107/104 54/106/104 63/113/104 
f 36/115/105 35/114/105 63/113/105 
f 63/113/106 64/116/106 36/115/106 
f 37/117/107 36/115/107 64/116/107 
f 64/116/108 67/118/108 37/117/108 
f 69/119/109 38/120/109 37/117/109 
f 37/117/110 67/118/110 69/119/110 
f 38/120/111 69/119/111 60/111/111 
f 60/111/112 26/110/112 38/120/112 
f 71/121/113 39/122/113 25/109/113 
f 25/109/114 59/112/114 71/121/114 
f 43/123/115 73/124/115 55/105/115 
f 55/105/116 24/108/116 43/123/116 
f 45/125/117 44/126/117 75/127/117 
f 75/127/118 74/128/118 45/125/118 
f 50/129/119 78/130/119 73/124/119 
f 73/124/120 43/123/120 50/129/120 
f 50/129/121 51/131/121 80/132/121 
f 80/132/122 78/130/122 50/129/122 
f 51/131/123 52/133/123 82/134/123 
f 82/134/124 80/132/124 51/131/124 
f 53/135/125 84/136/125 82/134/125 
f 82/134/126 52/133/126 53/135/126 
f 45/125/127 74/128/127 84/136/127 
f 84/136/128 53/135/128 45/125/128 
f 39/122/129 71/121/129 75/127/129 
f 75/127/130 44/126/130 39/122/130 
usemtl Material_001
f 58/137/131 61/138/131 86/139/131 
f 86/139/132 87/140/132 58/137/132 
f 62/141/133 57/142/133 56/143/133 
f 56/143/134 88/144/134 62/141/134 
f 89/145/135 65/146/135 62/141/135 
f 62/141/136 88/144/136 89/145/136 
f 90/147/137 66/148/137 65/146/137 
f 65/146/138 89/145/138 90/147/138 
f 91/149/139 68/150/139 66/148/139 
f 66/148/140 90/147/140 91/149/140 
f 61/138/141 68/150/141 91/149/141 
f 91/149/142 86/139/142 61/138/142 
f 77/151/143 76/152/143 87/140/143 
f 87/140/144 86/139/144 77/151/144 
f 56/143/145 72/153/145 79/154/145 
f 79/154/146 88/144/146 56/143/146 
f 81/155/147 89/145/147 88/144/147 
f 88/144/148 79/154/148 81/155/148 
f 83/156/149 90/147/149 89/145/149 
f 89/145/150 81/155/150 83/156/150 
f 91/149/151 90/147/151 83/156/151 
f 83/156/152 85/157/152 91/149/152 
f 85/157/153 77/151/153 86/139/153 
f 86/139/154 91/149/154 85/157/154 
# 144 faces

